<svg width="20" height="10" viewBox="0 0 20 10" fill="none" xmlns="http://www.w3.org/2000/svg">
<path d="M10.0017 9.99177C10.2089 9.96191 10.401 9.86745 10.5515 9.72206L18.8488 1.75669C19.0583 1.57981 19.1856 1.32423 19.2006 1.05059C19.2157 0.776713 19.1173 0.50886 18.9284 0.309998C18.7397 0.111131 18.4772 -0.000918452 18.2031 6.58838e-06C17.9288 0.000932582 17.6671 0.114835 17.4796 0.315089L9.86688 7.62735L2.25414 0.315088C2.06661 0.114833 1.80501 0.000929265 1.53067 5.13083e-06C1.25657 -0.000920911 0.994038 0.111129 0.805377 0.309997C0.616465 0.508865 0.518071 0.776718 0.53312 1.05059C0.548167 1.32423 0.675494 1.57982 0.885012 1.75668L9.18228 9.72206C9.40036 9.93158 9.70178 10.0309 10.0016 9.99154L10.0017 9.99177Z" fill="#419EF4"/>
</svg>
